<?xml version="1.0" encoding="UTF-8" standalone="no"?>
<!-- Created with Inkscape (http://www.inkscape.org/) -->

<svg
   xmlns:dc="http://purl.org/dc/elements/1.1/"
   xmlns:cc="http://creativecommons.org/ns#"
   xmlns:rdf="http://www.w3.org/1999/02/22-rdf-syntax-ns#"
   xmlns:svg="http://www.w3.org/2000/svg"
   xmlns="http://www.w3.org/2000/svg"
   xmlns:xlink="http://www.w3.org/1999/xlink"
   xmlns:sodipodi="http://sodipodi.sourceforge.net/DTD/sodipodi-0.dtd"
   xmlns:inkscape="http://www.inkscape.org/namespaces/inkscape"
   width="32"
   height="28"
   id="svg2"
   version="1.1"
   inkscape:version="0.92.3 (2405546, 2018-03-11)"
   sodipodi:docname="heart.svg"
   inkscape:export-filename="/tmp/heart.png"
   inkscape:export-xdpi="96.000008"
   inkscape:export-ydpi="96.000008">
  <defs
     id="defs4">
    <linearGradient
       inkscape:collect="always"
       id="linearGradient964">
      <stop
         style="stop-color:#fffdfe;stop-opacity:1;"
         offset="0"
         id="stop960" />
      <stop
         style="stop-color:#fffdfe;stop-opacity:0;"
         offset="1"
         id="stop962" />
    </linearGradient>
    <linearGradient
       id="linearGradient4002">
      <stop
         id="stop3998"
         offset="0"
         style="stop-color:#e395c9;stop-opacity:1" />
      <stop
         id="stop4000"
         offset="1"
         style="stop-color:#b92c89;stop-opacity:1" />
    </linearGradient>
    <linearGradient
       id="linearGradient3795">
      <stop
         style="stop-color:#ffffff;stop-opacity:1;"
         offset="0"
         id="stop3797" />
      <stop
         style="stop-color:#ff8a65;stop-opacity:1;"
         offset="1"
         id="stop3799" />
    </linearGradient>
    <linearGradient
       id="linearGradient3763">
      <stop
         style="stop-color:#d45aab;stop-opacity:1"
         offset="0"
         id="stop3765" />
      <stop
         style="stop-color:#b92c89;stop-opacity:1"
         offset="1"
         id="stop3767" />
    </linearGradient>
    <radialGradient
       inkscape:collect="always"
       xlink:href="#linearGradient3795"
       id="radialGradient3801"
       cx="250.74817"
       cy="251.64787"
       fx="250.74817"
       fy="251.64787"
       r="73.50135"
       gradientTransform="matrix(1,0,0,1.1626409,0,-40.928237)"
       gradientUnits="userSpaceOnUse" />
    <radialGradient
       inkscape:collect="always"
       xlink:href="#linearGradient4002"
       id="radialGradient2513-5-1"
       cx="250.75327"
       cy="238.15729"
       fx="250.75327"
       fy="238.15729"
       r="113.45115"
       gradientTransform="matrix(0.95031832,0,0,0.82367822,12.45857,44.532623)"
       gradientUnits="userSpaceOnUse" />
    <linearGradient
       inkscape:collect="always"
       xlink:href="#linearGradient4002"
       id="linearGradient891-3"
       x1="486.7688"
       y1="164.1125"
       x2="486.7688"
       y2="323.71912"
       gradientUnits="userSpaceOnUse"
       gradientTransform="translate(-236.5056,-5.562969)" />
    <linearGradient
       inkscape:collect="always"
       xlink:href="#linearGradient964"
       id="linearGradient966"
       x1="253.375"
       y1="152.26851"
       x2="253.375"
       y2="351.02734"
       gradientUnits="userSpaceOnUse" />
  </defs>
  <sodipodi:namedview
     id="base"
     pagecolor="#606060"
     bordercolor="#666666"
     borderopacity="1.0"
     inkscape:pageopacity="0"
     inkscape:pageshadow="2"
     inkscape:zoom="32"
     inkscape:cx="14.703324"
     inkscape:cy="14.505401"
     inkscape:document-units="px"
     inkscape:current-layer="g922"
     showgrid="false"
     fit-margin-top="0"
     fit-margin-left="0"
     fit-margin-right="0"
     fit-margin-bottom="0"
     inkscape:window-width="1920"
     inkscape:window-height="1164"
     inkscape:window-x="0"
     inkscape:window-y="36"
     inkscape:window-maximized="1"
     inkscape:snap-to-guides="true"
     inkscape:snap-others="true"
     inkscape:snap-nodes="true"
     inkscape:snap-text-baseline="true"
     inkscape:snap-bbox="true"
     inkscape:bbox-paths="true"
     inkscape:bbox-nodes="true"
     inkscape:snap-bbox-edge-midpoints="true"
     inkscape:snap-bbox-midpoints="false"
     inkscape:snap-global="true"
     inkscape:pagecheckerboard="true"
     inkscape:snap-page="true"
     inkscape:snap-smooth-nodes="true" />
  <metadata
     id="metadata7">
    <rdf:RDF>
      <cc:Work
         rdf:about="">
        <dc:format>image/svg+xml</dc:format>
        <dc:type
           rdf:resource="http://purl.org/dc/dcmitype/StillImage" />
        <dc:title></dc:title>
      </cc:Work>
    </rdf:RDF>
  </metadata>
  <g
     inkscape:label="Ebene 1"
     inkscape:groupmode="layer"
     id="layer1"
     transform="translate(-134.55331,-322.82974)">
    <flowRoot
       xml:space="preserve"
       id="flowRoot2551"
       style="font-style:normal;font-weight:normal;font-size:40px;line-height:1.25;font-family:sans-serif;letter-spacing:0px;word-spacing:0px;fill:#000000;fill-opacity:1;stroke:none"
       transform="translate(134.55331,135.45305)"><flowRegion
         id="flowRegion2553"><rect
           id="rect2555"
           width="58.997826"
           height="44.934391"
           x="84.380615"
           y="106.84781" /></flowRegion><flowPara
         id="flowPara2557">1</flowPara></flowRoot>    <g
       aria-label="1"
       style="font-style:normal;font-variant:normal;font-weight:normal;font-stretch:normal;font-size:70.25965118px;line-height:1.25;font-family:Mamelon;-inkscape-font-specification:Mamelon;letter-spacing:0px;word-spacing:0px;fill:#ffffff;fill-opacity:1;stroke:#fffdfe;stroke-width:1.505;stroke-miterlimit:4;stroke-dasharray:none;stroke-opacity:1"
       id="text2596" />
    <text
       xml:space="preserve"
       style="font-style:normal;font-weight:normal;font-size:40px;line-height:1.25;font-family:sans-serif;letter-spacing:0px;word-spacing:0px;fill:#000000;fill-opacity:1;stroke:none"
       x="263.05331"
       y="254.84274"
       id="text2692"><tspan
         sodipodi:role="line"
         id="tspan2690"
         x="263.05331"
         y="290.91931" /></text>
    <g
       id="g922"
       transform="matrix(0.14092855,0,0,0.14087424,115.21574,301.37903)">
      <path
         style="fill:url(#radialGradient2513-5-1);fill-opacity:1;stroke:none;stroke-width:4.04455471;stroke-miterlimit:4;stroke-dasharray:none;stroke-opacity:1"
         inkscape:connector-curvature="0"
         id="imagebot_1919-9-0"
         stroke-miterlimit="4"
         d="m 205.16131,164.14639 c -35.82704,0.088 -59.97632,40.6144 -56.46447,64.4649 7.75239,52.64906 59.52873,82.04483 102.05132,110.53825 42.52259,-28.49342 94.29894,-57.88919 102.05132,-110.53825 4.86189,-33.01896 -43.29197,-97.99685 -102.05132,-43.38585 -16.31594,-15.16403 -31.81443,-21.11232 -45.58685,-21.07905 z" />
      <path
         inkscape:connector-curvature="0"
         id="imagebot_1919-9-0-5-2"
         d="m 205.13627,155.8179 c -20.7569,0.051 -37.82344,11.77129 -48.96289,26.27929 -11.1118,14.47201 -17.16069,31.9195 -14.96289,46.84571 4.20063,28.52786 20.40699,50.65029 40.37891,68.81836 19.96523,18.16198 43.86511,32.77634 64.94336,46.90039 h 0.002 l 4.20508,2.8164 4.20703,-2.8164 h 0.002 c 21.07825,-14.12405 44.97813,-28.73842 64.94336,-46.90039 19.97192,-18.16807 36.17828,-40.2905 40.37891,-68.81836 3.0373,-20.62743 -9.11864,-46.55992 -30.22266,-61.78516 -10.59194,-7.64143 -23.85467,-12.37501 -38.52539,-11.13672 -13.0495,1.10144 -26.85943,7.15631 -40.7207,18.61524 -15.6378,-12.95911 -31.23817,-18.85322 -45.66602,-18.81836 z m 0.0176,7.55859 c 1.66332,-0.004 3.35464,0.0858 5.06836,0.26563 -1.71323,-0.17666 -3.40484,-0.26769 -5.06836,-0.26368 -4.4792,0.011 -8.77663,0.65478 -12.85937,1.81836 -4.0819,1.16334 -7.95113,2.84557 -11.57422,4.9375 3.62298,-2.09227 7.49247,-3.77385 11.57422,-4.9375 4.08335,-1.16411 8.37946,-1.80931 12.85937,-1.82031 z m 87.00391,0.17578 c 6.34643,-0.53567 12.36874,0.20788 17.97656,1.92969 -5.6076,-1.7218 -11.62901,-2.46334 -17.97461,-1.92774 -3.05877,0.25818 -6.20508,0.84991 -9.41015,1.73438 3.20762,-0.89409 6.34953,-1.47816 9.4082,-1.73633 z m -78.9707,0.55274 c 0.72168,0.11991 1.43251,0.19577 2.1621,0.34961 -0.72877,-0.15144 -1.44112,-0.2317 -2.1621,-0.34961 z m 6.50585,1.48632 c 0.28438,0.085 0.56223,0.14214 0.84766,0.23243 -0.2852,-0.0892 -0.5635,-0.14849 -0.84766,-0.23243 z m 58.17774,1.50782 c -1.61432,0.60262 -3.2075,1.09783 -4.85156,1.87304 1.64576,-0.78173 3.23604,-1.26463 4.85156,-1.87304 z m 40.35351,1.66211 c 2.58551,1.31346 5.05578,2.83389 7.4004,4.52539 18.82973,13.58448 29.60988,37.87885 27.16796,54.53515 1.22283,-8.34631 -1.04775,-18.41455 -5.76367,-28.26562 -4.71978,-9.85913 -11.98176,-19.46981 -21.40429,-26.26758 -2.34437,-1.69132 -4.81501,-3.21395 -7.4004,-4.52734 z m -137.50586,1.375 c -2.80975,1.6225 -5.42145,3.54967 -7.92187,5.61132 2.50005,-2.06155 5.11262,-3.98879 7.92187,-5.61132 z m 24.45313,0.80078 c 11.59483,-0.028 25.12659,4.83964 40.42187,19.05468 l 5.14649,4.78711 5.14648,-4.78711 c 13.7688,-12.79673 26.16039,-17.99907 36.90821,-18.90625 10.75119,-0.90745 20.20278,2.41374 28.40625,8.33204 8.15838,5.88576 14.77523,14.55684 19.00976,23.40234 4.23454,8.8455 5.9909,17.89536 5.10352,23.92187 -3.55312,24.13044 -17.10312,43.01554 -35.59571,59.8379 -17.29973,15.73723 -38.72378,29.26501 -58.97656,42.71093 -20.25316,-13.44621 -41.67839,-26.97336 -58.97851,-42.71093 -18.4926,-16.82236 -32.04258,-35.70746 -35.59571,-59.8379 -1.28699,-8.74054 3.00469,-23.72904 11.9961,-35.43945 9.02204,-11.7503 21.94356,-20.32823 37.00781,-20.36523 z m 61.54687,1.61132 c -1.26093,0.75415 -2.50439,1.38885 -3.77929,2.25 1.27637,-0.8652 2.51712,-1.4914 3.77929,-2.25 z m -10.39843,7.35743 c -1.76986,1.43619 -3.52002,2.67633 -5.31055,4.33007 l 2.21289,-1.93945 c 1.04529,-0.91633 2.05976,-1.54761 3.09766,-2.39062 z m 43.55469,124.6914 c -1.85984,1.43452 -3.81327,2.77408 -5.71094,4.17383 1.89717,-1.39938 3.85137,-2.73947 5.71094,-4.17383 z m -98.25391,0.0117 c 1.77727,1.3707 3.6472,2.6496 5.45898,3.98828 -1.81237,-1.33911 -3.68134,-2.61733 -5.45898,-3.98828 z m 15.86523,11.55078 c 9.84027,6.82803 19.86346,13.31229 29.53711,19.73828 -9.68625,-6.43334 -19.67557,-12.89493 -29.53711,-19.73828 z m 66.50977,0 c -9.86154,6.84335 -19.85086,13.30494 -29.53711,19.73828 9.67365,-6.42599 19.69684,-12.91025 29.53711,-19.73828 z"
         style="color:#000000;font-style:normal;font-variant:normal;font-weight:normal;font-stretch:normal;font-size:medium;line-height:normal;font-family:sans-serif;font-variant-ligatures:normal;font-variant-position:normal;font-variant-caps:normal;font-variant-numeric:normal;font-variant-alternates:normal;font-feature-settings:normal;text-indent:0;text-align:start;text-decoration:none;text-decoration-line:none;text-decoration-style:solid;text-decoration-color:#000000;letter-spacing:normal;word-spacing:normal;text-transform:none;writing-mode:lr-tb;direction:ltr;text-orientation:mixed;dominant-baseline:auto;baseline-shift:baseline;text-anchor:start;white-space:normal;shape-padding:0;clip-rule:nonzero;display:inline;overflow:visible;visibility:visible;opacity:1;isolation:auto;mix-blend-mode:normal;color-interpolation:sRGB;color-interpolation-filters:linearRGB;solid-color:#000000;solid-opacity:1;vector-effect:none;fill:url(#linearGradient891-3);fill-opacity:1;fill-rule:nonzero;stroke:none;stroke-width:7.55905533;stroke-linecap:butt;stroke-linejoin:miter;stroke-miterlimit:4;stroke-dasharray:none;stroke-dashoffset:0;stroke-opacity:1;paint-order:stroke fill markers;color-rendering:auto;image-rendering:auto;shape-rendering:auto;text-rendering:auto;enable-background:accumulate" />
      <path
         inkscape:connector-curvature="0"
         id="imagebot_1919-9-0-5"
         d="m 205.14845,159.98196 c -19.33651,0.0475 -35.36646,10.98728 -45.97266,24.80078 -10.60619,13.8135 -16.2054,30.52843 -14.22265,43.99414 4.03808,27.42396 19.58527,48.74601 39.18359,66.57422 19.59832,17.82821 43.33261,32.36828 64.50391,46.55468 l 2.10351,1.40821 2.10352,-1.40821 c 21.1713,-14.1864 44.90558,-28.72647 64.50391,-46.55468 19.59832,-17.82821 35.14551,-39.15026 39.18359,-66.57422 2.74497,-18.64212 -8.72494,-43.76254 -28.69531,-58.16992 -9.98519,-7.2037 -22.31431,-11.59037 -35.9961,-10.43555 -12.90813,1.08951 -26.84992,7.16765 -41.10937,19.66797 -15.92793,-13.95391 -31.48118,-19.8915 -45.58594,-19.85742 z m 0.0176,7.56054 c 12.67733,-0.0306 27.20314,5.37937 43.00586,20.06641 l 2.57226,2.39258 2.57227,-2.39258 c 14.22751,-13.22306 27.44287,-18.91497 39.16406,-19.9043 11.72119,-0.98933 22.14509,2.69143 30.93555,9.03321 17.58092,12.68354 27.75755,36.56261 25.64062,50.93945 -3.7143,25.22509 -17.93242,44.92673 -36.79101,62.08203 -18.25294,16.60434 -40.7342,30.60665 -61.52149,44.46289 -20.78728,-13.85624 -43.26854,-27.85855 -61.52148,-44.46289 -18.8586,-17.1553 -33.07671,-36.85694 -36.79102,-62.08203 -1.5291,-10.38479 3.19104,-25.85669 12.73829,-38.29102 9.54724,-12.43432 23.50556,-21.80324 39.99609,-21.84375 z"
         style="color:#000000;font-style:normal;font-variant:normal;font-weight:normal;font-stretch:normal;font-size:medium;line-height:normal;font-family:sans-serif;font-variant-ligatures:normal;font-variant-position:normal;font-variant-caps:normal;font-variant-numeric:normal;font-variant-alternates:normal;font-feature-settings:normal;text-indent:0;text-align:start;text-decoration:none;text-decoration-line:none;text-decoration-style:solid;text-decoration-color:#000000;letter-spacing:normal;word-spacing:normal;text-transform:none;writing-mode:lr-tb;direction:ltr;text-orientation:mixed;dominant-baseline:auto;baseline-shift:baseline;text-anchor:start;white-space:normal;shape-padding:0;clip-rule:nonzero;display:inline;overflow:visible;visibility:visible;opacity:1;isolation:auto;mix-blend-mode:normal;color-interpolation:sRGB;color-interpolation-filters:linearRGB;solid-color:#000000;solid-opacity:1;vector-effect:none;fill:url(#linearGradient966);fill-opacity:1;fill-rule:nonzero;stroke:none;stroke-width:7.55905533;stroke-linecap:butt;stroke-linejoin:miter;stroke-miterlimit:4;stroke-dasharray:none;stroke-dashoffset:0;stroke-opacity:1;paint-order:stroke fill markers;color-rendering:auto;image-rendering:auto;shape-rendering:auto;text-rendering:auto;enable-background:accumulate" />
    </g>
  </g>
</svg>
