<?xml version="1.0" encoding="UTF-8" standalone="no"?>
<!-- Created with Inkscape (http://www.inkscape.org/) -->

<svg
   xmlns:dc="http://purl.org/dc/elements/1.1/"
   xmlns:cc="http://creativecommons.org/ns#"
   xmlns:rdf="http://www.w3.org/1999/02/22-rdf-syntax-ns#"
   xmlns:svg="http://www.w3.org/2000/svg"
   xmlns="http://www.w3.org/2000/svg"
   xmlns:xlink="http://www.w3.org/1999/xlink"
   xmlns:sodipodi="http://sodipodi.sourceforge.net/DTD/sodipodi-0.dtd"
   xmlns:inkscape="http://www.inkscape.org/namespaces/inkscape"
   width="232.38969"
   height="232.38969"
   id="svg2"
   version="1.1"
   inkscape:version="0.92.3 (2405546, 2018-03-11)"
   sodipodi:docname="life.svg"
   inkscape:export-filename="/tmp/life.png"
   inkscape:export-xdpi="25.612152"
   inkscape:export-ydpi="25.612152">
  <defs
     id="defs4">
    <linearGradient
       id="linearGradient4002">
      <stop
         id="stop3998"
         offset="0"
         style="stop-color:#e395c9;stop-opacity:1" />
      <stop
         id="stop4000"
         offset="1"
         style="stop-color:#b92c89;stop-opacity:1" />
    </linearGradient>
    <linearGradient
       inkscape:collect="always"
       id="linearGradient2672">
      <stop
         style="stop-color:#ffffff;stop-opacity:1;"
         offset="0"
         id="stop2668" />
      <stop
         style="stop-color:#ffffff;stop-opacity:0.49803922"
         offset="1"
         id="stop2670" />
    </linearGradient>
    <linearGradient
       inkscape:collect="always"
       id="linearGradient2644">
      <stop
         style="stop-color:#ffffff;stop-opacity:1;"
         offset="0"
         id="stop2640" />
      <stop
         style="stop-color:#ffffff;stop-opacity:0.72222221"
         offset="1"
         id="stop2642" />
    </linearGradient>
    <linearGradient
       id="linearGradient3795">
      <stop
         style="stop-color:#ffffff;stop-opacity:1;"
         offset="0"
         id="stop3797" />
      <stop
         style="stop-color:#ff8a65;stop-opacity:1;"
         offset="1"
         id="stop3799" />
    </linearGradient>
    <linearGradient
       id="linearGradient3763">
      <stop
         style="stop-color:#d45aab;stop-opacity:1"
         offset="0"
         id="stop3765" />
      <stop
         style="stop-color:#b92c89;stop-opacity:1"
         offset="1"
         id="stop3767" />
    </linearGradient>
    <radialGradient
       inkscape:collect="always"
       xlink:href="#linearGradient3795"
       id="radialGradient3801"
       cx="250.74817"
       cy="251.64787"
       fx="250.74817"
       fy="251.64787"
       r="73.50135"
       gradientTransform="matrix(1,0,0,1.1626409,0,-40.928237)"
       gradientUnits="userSpaceOnUse" />
    <radialGradient
       inkscape:collect="always"
       xlink:href="#linearGradient3763"
       id="radialGradient2638"
       cx="250.74815"
       cy="-245.66634"
       fx="250.74815"
       fy="-245.66634"
       r="111.81218"
       gradientTransform="matrix(0.60648294,0,0,0.75231188,-233.66651,69.191665)"
       gradientUnits="userSpaceOnUse" />
    <linearGradient
       inkscape:collect="always"
       xlink:href="#linearGradient2672"
       id="linearGradient2674"
       x1="214.46562"
       y1="252.18968"
       x2="214.46562"
       y2="278.61969"
       gradientUnits="userSpaceOnUse"
       gradientTransform="translate(-332.34019,-131.52186)" />
    <linearGradient
       inkscape:collect="always"
       xlink:href="#linearGradient2644"
       id="linearGradient2676"
       gradientUnits="userSpaceOnUse"
       x1="153.13231"
       y1="-236.30515"
       x2="153.13231"
       y2="-319.39023"
       gradientTransform="translate(-332.34019,131.52186)" />
    <radialGradient
       inkscape:collect="always"
       xlink:href="#linearGradient4002"
       id="radialGradient2513-5-1"
       cx="250.75327"
       cy="238.15729"
       fx="250.75327"
       fy="238.15729"
       r="113.45115"
       gradientTransform="matrix(0.95031832,0,0,0.82367822,12.45857,44.532623)"
       gradientUnits="userSpaceOnUse" />
    <radialGradient
       inkscape:collect="always"
       xlink:href="#linearGradient3763"
       id="radialGradient2651"
       cx="250.75887"
       cy="252.69699"
       fx="250.75887"
       fy="252.69699"
       r="119.14958"
       gradientTransform="matrix(-0.8026729,0.77341804,-0.70646047,-0.73318264,630.55673,244.03782)"
       gradientUnits="userSpaceOnUse" />
    <linearGradient
       inkscape:collect="always"
       xlink:href="#linearGradient2672"
       id="linearGradient2653"
       x1="131.60928"
       y1="252.69699"
       x2="150.12086"
       y2="349.66705"
       gradientUnits="userSpaceOnUse"
       gradientTransform="matrix(0.95031832,0,0,0.95031832,12.458203,12.563625)" />
    <linearGradient
       inkscape:collect="always"
       xlink:href="#linearGradient2672"
       id="linearGradient2674-9"
       x1="214.46562"
       y1="252.18968"
       x2="214.46562"
       y2="278.61969"
       gradientUnits="userSpaceOnUse"
       gradientTransform="matrix(1.3915729,0,0,1.3915729,-98.636588,-116.47641)" />
  </defs>
  <sodipodi:namedview
     id="base"
     pagecolor="#606060"
     bordercolor="#666666"
     borderopacity="1.0"
     inkscape:pageopacity="0"
     inkscape:pageshadow="2"
     inkscape:zoom="1.4142136"
     inkscape:cx="-71.19325"
     inkscape:cy="85.672149"
     inkscape:document-units="px"
     inkscape:current-layer="layer1"
     showgrid="false"
     fit-margin-top="0"
     fit-margin-left="0"
     fit-margin-right="0"
     fit-margin-bottom="0"
     inkscape:window-width="1920"
     inkscape:window-height="1164"
     inkscape:window-x="0"
     inkscape:window-y="36"
     inkscape:window-maximized="1"
     inkscape:snap-to-guides="true"
     inkscape:snap-others="true"
     inkscape:snap-nodes="true"
     inkscape:snap-text-baseline="true"
     inkscape:snap-bbox="true"
     inkscape:bbox-paths="true"
     inkscape:bbox-nodes="false"
     inkscape:snap-bbox-edge-midpoints="true"
     inkscape:snap-bbox-midpoints="true"
     inkscape:snap-global="false"
     inkscape:pagecheckerboard="true" />
  <metadata
     id="metadata7">
    <rdf:RDF>
      <cc:Work
         rdf:about="">
        <dc:format>image/svg+xml</dc:format>
        <dc:type
           rdf:resource="http://purl.org/dc/dcmitype/StillImage" />
        <dc:title />
      </cc:Work>
    </rdf:RDF>
  </metadata>
  <g
     inkscape:label="Ebene 1"
     inkscape:groupmode="layer"
     id="layer1"
     transform="translate(-134.55331,-135.45305)">
    <flowRoot
       xml:space="preserve"
       id="flowRoot2551"
       style="font-style:normal;font-weight:normal;font-size:40px;line-height:1.25;font-family:sans-serif;letter-spacing:0px;word-spacing:0px;fill:#000000;fill-opacity:1;stroke:none"
       transform="translate(134.55331,135.45305)"><flowRegion
         id="flowRegion2553"><rect
           id="rect2555"
           width="58.997826"
           height="44.934391"
           x="84.380615"
           y="106.84781" /></flowRegion><flowPara
         id="flowPara2557">1</flowPara></flowRoot>    <g
       aria-label="1"
       style="font-style:normal;font-variant:normal;font-weight:normal;font-stretch:normal;font-size:70.25965118px;line-height:1.25;font-family:Mamelon;-inkscape-font-specification:Mamelon;letter-spacing:0px;word-spacing:0px;fill:#ffffff;fill-opacity:1;stroke:#fffdfe;stroke-width:1.505;stroke-miterlimit:4;stroke-dasharray:none;stroke-opacity:1"
       id="text2596" />
    <g
       id="g980"
       transform="translate(329.43952,-115.719)">
      <path
         transform="scale(1,-1)"
         inkscape:transform-center-y="10.656583"
         d="m -81.592032,-182.11704 65.59502,-38.94922 -16.772931,74.42055 57.312884,50.348598 -75.961265,7.045208 -30.173709,70.066365 -30.173717,-70.066367 -75.96126,-7.045205 57.31289,-50.348609 -16.77294,-74.42054 z"
         inkscape:randomized="0"
         inkscape:rounded="-3.469447e-18"
         inkscape:flatsided="false"
         sodipodi:arg2="-0.9424778"
         sodipodi:arg1="-1.5707963"
         sodipodi:r2="111.59692"
         sodipodi:r1="51.334583"
         sodipodi:cy="-130.78246"
         sodipodi:cx="-81.592033"
         sodipodi:sides="5"
         id="path139"
         style="fill:url(#radialGradient2638);fill-opacity:1;stroke:#b92c89;stroke-width:11.35599995;stroke-linecap:square;stroke-linejoin:round;stroke-miterlimit:3.9000001;stroke-dasharray:none;stroke-opacity:1;paint-order:normal"
         sodipodi:type="star" />
      <path
         sodipodi:type="star"
         style="fill:none;fill-opacity:1;stroke:url(#linearGradient2676);stroke-width:9.25399971;stroke-linecap:butt;stroke-linejoin:miter;stroke-miterlimit:3.9000001;stroke-dasharray:none;stroke-opacity:1;paint-order:normal"
         id="path4555"
         sodipodi:sides="5"
         sodipodi:cx="-81.592033"
         sodipodi:cy="-130.49437"
         sodipodi:r1="41.832893"
         sodipodi:r2="90.941071"
         sodipodi:arg1="-1.5707963"
         sodipodi:arg2="-0.9424778"
         inkscape:flatsided="false"
         inkscape:rounded="-3.469447e-18"
         inkscape:randomized="0"
         d="m -81.592032,-172.32726 53.453818,-31.73998 -13.668373,60.6458 46.7046515,41.02941 -61.9013415,5.741183 -24.588756,57.097548 -24.588757,-57.09755 -61.90134,-5.741181 46.70465,-41.02942 -13.66837,-60.64579 z"
         inkscape:transform-center-y="8.6841097"
         transform="scale(1,-1)" />
      <path
         inkscape:connector-curvature="0"
         d="m -89.588357,139.19006 c -2.55962,0.0674 -4.37746,-2.52763 -4.0344,-4.9352 v -22.52285 c -0.13639,-3.24314 5.1388,-2.72074 4.57634,0.39018 v 21.46787 c 0.24909,1.25803 1.81462,0.63104 2.73369,0.7828 2.77174,-0.0358 5.55512,0.072 8.31952,-0.0546 0.89716,-0.59945 0.36232,-1.87996 0.50807,-2.80918 V 111.7922 c -0.061,-3.26728 5.30604,-2.8526 4.69677,0.39018 -0.0183,7.36164 0.0368,14.72557 -0.0278,22.08577 -0.21438,3.02305 -3.20752,5.30187 -6.17192,4.92188 h -10.60028 z m 38.87302,-9.62043 c -2.78056,0 -7.28285,-0.005 -9.94304,0.003 -0.14924,4.3e-4 -0.249,0.66851 -0.24588,0.87587 0.0106,0.70382 0.007,1.60721 0.007,2.35778 -0.0289,1.92325 -0.0222,2.0434 -0.0222,4.03721 0,3.13281 -4.94845,3.21461 -4.94845,0.0645 0.0139,-11.29107 -0.0278,-12.62257 0.0208,-23.91278 0.15263,-2.39633 2.57911,-3.98593 4.85413,-3.67156 3.93544,0.0136 7.87222,-0.0274 11.80681,0.0209 2.39753,0.1537 4.05162,2.55683 3.7311,4.85413 -0.0188,6.64949 0.0378,5.23889 -0.0285,11.88686 -0.23786,2.72256 -1.29304,3.48438 -5.26361,3.48438 z m -10.15422,-14.82687 -0.0493,9.66335 c -0.007,1.33902 1.84542,0.74908 2.7939,0.89257 2.39803,-0.0427 4.8634,0.0804 7.25018,-0.0694 0.61272,-1.06127 0.48266,-2.25048 0.48266,-3.46286 v -7.02372 c -0.21069,-1.31844 -1.8015,-0.70025 -2.73369,-0.84301 -2.40989,0.0424 -4.83585,-0.0849 -7.23566,0.064 -0.31144,0.11979 -0.51649,0.44871 -0.50806,0.77903 z m -56.252513,-2.74952 c 0,-1.40519 1.26467,-2.66987 2.74012,-2.66987 h 8.7122 c 2.59961,0 4.7074,2.17805 4.7074,4.77766 v 39.6967 c 0,1.54572 -1.26468,2.95091 -2.81039,2.95091 -1.54571,0 -2.9509,-1.40519 -2.9509,-2.95091 v -38.29151 c 0,-0.56207 -0.3513,-0.84311 -0.98364,-0.84311 h -6.67467 c -1.47545,0 -2.74012,-1.26468 -2.74012,-2.66987 z"
         style="font-style:normal;font-variant:normal;font-weight:normal;font-stretch:normal;font-size:60.21500778px;line-height:1.25;font-family:Mamelon;-inkscape-font-specification:Mamelon;letter-spacing:0px;word-spacing:0px;fill:url(#linearGradient2674);fill-opacity:1;stroke:#fffdfe;stroke-width:1.505;stroke-linecap:round;stroke-linejoin:round;stroke-miterlimit:4;stroke-dasharray:none;stroke-opacity:1"
         id="text2596-7" />
    </g>
    <path
       d="m 205.16131,164.14639 c -35.82704,0.088 -59.97632,40.6144 -56.46447,64.4649 7.75239,52.64906 59.52873,82.04483 102.05132,110.53825 42.52259,-28.49342 94.29894,-57.88919 102.05132,-110.53825 4.86189,-33.01896 -43.29197,-97.99685 -102.05132,-43.38585 -16.31594,-15.16403 -31.81443,-21.11232 -45.58685,-21.07905 z"
       stroke-miterlimit="4"
       id="imagebot_1919-9-0"
       inkscape:connector-curvature="0"
       style="fill:url(#radialGradient2513-5-1);fill-opacity:1;stroke:none;stroke-width:4.04455471;stroke-miterlimit:4;stroke-dasharray:none;stroke-opacity:1" />
    <path
       style="color:#000000;font-style:normal;font-variant:normal;font-weight:normal;font-stretch:normal;font-size:medium;line-height:normal;font-family:sans-serif;font-variant-ligatures:normal;font-variant-position:normal;font-variant-caps:normal;font-variant-numeric:normal;font-variant-alternates:normal;font-feature-settings:normal;text-indent:0;text-align:start;text-decoration:none;text-decoration-line:none;text-decoration-style:solid;text-decoration-color:#000000;letter-spacing:normal;word-spacing:normal;text-transform:none;writing-mode:lr-tb;direction:ltr;text-orientation:mixed;dominant-baseline:auto;baseline-shift:baseline;text-anchor:start;white-space:normal;shape-padding:0;clip-rule:nonzero;display:inline;overflow:visible;visibility:visible;opacity:1;isolation:auto;mix-blend-mode:normal;color-interpolation:sRGB;color-interpolation-filters:linearRGB;solid-color:#000000;solid-opacity:1;vector-effect:none;fill:url(#linearGradient2653);fill-opacity:1;fill-rule:nonzero;stroke:url(#radialGradient2651);stroke-width:14.25477505;stroke-linecap:butt;stroke-linejoin:round;stroke-miterlimit:4;stroke-dasharray:none;stroke-dashoffset:0;stroke-opacity:1;paint-order:stroke fill markers;color-rendering:auto;image-rendering:auto;shape-rendering:auto;text-rendering:auto;enable-background:accumulate"
       d="m 205.14823,158.71033 c -19.94508,0.0489 -36.41971,11.32189 -47.25234,25.4303 -10.83263,14.10841 -16.61666,31.0917 -14.53691,45.21621 4.10732,27.89416 19.936,49.5599 39.6925,67.532 19.7565,17.9721 43.55937,32.54234 64.69218,46.70295 l 3.00501,2.012 3.00315,-2.012 c 21.1328,-14.16061 44.93567,-28.73085 64.69217,-46.70295 19.7565,-17.9721 35.58704,-39.63784 39.69435,-67.532 2.87927,-19.55417 -8.86903,-44.93999 -29.35035,-59.71599 -10.24066,-7.38801 -22.97438,-11.92583 -37.0754,-10.73563 -12.97849,1.09545 -26.8801,7.0813 -40.97878,19.13815 -15.7891,-13.48841 -31.3574,-19.36741 -45.58558,-19.33304 z m 0.026,10.79131 c 12.209,-0.0295 26.31616,5.15253 41.89938,19.63559 l 3.67507,3.41334 3.67319,-3.41334 c 14.02979,-13.0393 26.8964,-18.52573 38.19834,-19.47968 11.30196,-0.95395 21.31838,2.57729 29.85337,8.73477 17.06997,12.31493 26.96931,35.92764 24.98668,49.39242 -3.64507,24.7549 -17.57872,44.10965 -36.27914,61.12106 -17.84194,16.23047 -39.86643,30.03085 -60.43244,43.71464 -20.56637,-13.68403 -42.59203,-27.48387 -60.43431,-43.71464 -18.70042,-17.01141 -32.63407,-36.36616 -36.27914,-61.12106 -1.4321,-9.72598 3.10014,-24.93228 12.42095,-37.0717 9.32081,-12.13941 22.83609,-21.17239 38.71805,-21.2114 z"
       id="imagebot_1919"
       inkscape:connector-curvature="0" />
    <path
       inkscape:connector-curvature="0"
       d="m 239.17028,260.23897 c -3.5619,0.0938 -6.09157,-3.51739 -5.61418,-6.86769 v -31.34219 c -0.18979,-4.51306 7.15102,-3.7861 6.36832,0.54296 v 29.87412 c 0.34663,1.75063 2.52518,0.87813 3.80414,1.08932 3.85707,-0.0498 7.73035,0.10019 11.57721,-0.0759 1.24846,-0.83419 0.50419,-2.61611 0.70702,-3.9092 v -27.43754 c -0.0849,-4.54666 7.38374,-3.9696 6.5359,0.54296 -0.0255,10.24427 0.0512,20.49171 -0.0387,30.73396 -0.29831,4.20679 -4.4635,7.37794 -8.58867,6.84916 h -14.75107 z m 54.09464,-13.38753 c -3.86936,0 -10.13463,-0.008 -13.83648,0.005 -0.20767,6e-4 -0.34649,0.93027 -0.34215,1.21883 0.0148,0.97942 0.01,2.23655 0.01,3.28103 -0.0402,2.67634 -0.0309,2.84354 -0.0309,5.61806 0,4.35954 -6.88612,4.47338 -6.88612,0.0897 0.0193,-15.71235 -0.0387,-17.56523 0.0289,-33.27639 0.21239,-3.33465 3.58902,-5.54671 6.75487,-5.10924 5.47646,0.019 10.95477,-0.0381 16.43003,0.0291 3.33634,0.21389 5.63813,3.55802 5.19211,6.75487 -0.0262,9.25325 0.0526,7.29029 -0.0396,16.54143 -0.33101,3.78865 -1.79936,4.84878 -7.3247,4.84878 z m -14.13033,-20.63267 -0.0687,13.44726 c -0.01,1.86334 2.56802,1.0424 3.8879,1.24207 3.33704,-0.0594 6.76778,0.11188 10.08916,-0.0966 0.85265,-1.47684 0.67166,-3.13171 0.67166,-4.81883 v -9.77402 c -0.29319,-1.8347 -2.50692,-0.97444 -3.80413,-1.17311 -3.35355,0.059 -6.72944,-0.11814 -10.06894,0.0891 -0.4334,0.16669 -0.71875,0.62441 -0.707,1.08407 z m -78.27949,-3.82616 c 0,-1.95542 1.75988,-3.71531 3.81307,-3.71531 h 12.12366 c 3.61755,0 6.5507,3.0309 6.5507,6.64845 v 55.24086 c 0,2.15098 -1.7599,4.10641 -3.91087,4.10641 -2.15097,0 -4.10639,-1.95543 -4.10639,-4.10641 v -53.28543 c 0,-0.78216 -0.48885,-1.17325 -1.36881,-1.17325 h -9.28829 c -2.05319,0 -3.81307,-1.75989 -3.81307,-3.71532 z"
       style="font-style:normal;font-variant:normal;font-weight:normal;font-stretch:normal;font-size:60.21500778px;line-height:1.25;font-family:Mamelon;-inkscape-font-specification:Mamelon;letter-spacing:0px;word-spacing:0px;fill:url(#linearGradient2674-9);fill-opacity:1;stroke:#fffdfe;stroke-width:2.09431744;stroke-linecap:round;stroke-linejoin:round;stroke-miterlimit:4;stroke-dasharray:none;stroke-opacity:1"
       id="text2596-7-0" />
    <text
       xml:space="preserve"
       style="font-style:normal;font-weight:normal;font-size:40px;line-height:1.25;font-family:sans-serif;letter-spacing:0px;word-spacing:0px;fill:#000000;fill-opacity:1;stroke:none"
       x="263.05331"
       y="254.84274"
       id="text2692"><tspan
         sodipodi:role="line"
         id="tspan2690"
         x="263.05331"
         y="290.91931" /></text>
  </g>
</svg>
